<?xml version="1.0" encoding="iso-8859-1"?>
<!-- Generator: Adobe Illustrator 16.0.0, SVG Export Plug-In . SVG Version: 6.00 Build 0)  -->
<!DOCTYPE svg PUBLIC "-//W3C//DTD SVG 1.1//EN" "http://www.w3.org/Graphics/SVG/1.1/DTD/svg11.dtd">
<svg version="1.1" id="Layer_1" xmlns="http://www.w3.org/2000/svg" xmlns:xlink="http://www.w3.org/1999/xlink" x="0px" y="0px"
	 width="81.528px" height="76.92px" viewBox="0 0 81.528 76.92" style="enable-background:new 0 0 81.528 76.92;"
	 xml:space="preserve">
<path d="M47.094,76.836L34.571,76.92l-0.008-7.086c-0.005-6.646-0.701-14.203-2.065-22.461c-1.369-8.18-3.042-14.923-4.972-20.033
	c-5.186-13.63-9.342-15.078-10.889-15.067c-0.311,0.002-0.6,0.039-0.858,0.108c-0.427,0.116-1.079,0.387-1.814,1.395
	c-0.965,1.353-1.442,3.193-1.44,5.599c0.004,3.506,1.195,7.202,3.539,10.984l3.27,5.276L5.451,35.729l-1.01-1.797
	C1.499,28.692,0.004,23.642,0,18.922c-0.005-5.12,1.54-9.496,4.594-13.007c3.161-3.637,7.311-5.557,12.084-5.589
	c7.478-0.052,13.77,4.643,18.699,13.954c2.163,4.084,3.947,8.867,5.344,14.313c1.357-5.316,3.122-10.059,5.287-14.195
	c3.99-7.626,8.909-12.278,14.617-13.826C61.991,0.203,63.41,0.01,64.844,0c4.804-0.033,8.861,1.77,12.058,5.359
	c3.063,3.406,4.624,7.753,4.627,12.906c0.005,4.714-1.466,9.812-4.372,15.149l-1,1.836l-13.662,0.094l2.925-5.205
	c2.383-4.24,3.589-8.09,3.585-11.442c-0.002-2.442-0.498-4.389-1.474-5.786c-0.909-1.254-1.813-1.429-2.648-1.422
	c-0.272,0.001-0.536,0.038-0.808,0.112c-1.742,0.472-5.307,2.914-9.613,13.96c-2.052,5.234-3.767,12.037-5.246,20.803
	c-1.418,8.527-2.134,16.47-2.127,23.598L47.094,76.836z"/>
</svg>
