<?xml version="1.0" encoding="iso-8859-1"?>
<!-- Generator: Adobe Illustrator 16.0.0, SVG Export Plug-In . SVG Version: 6.00 Build 0)  -->
<!DOCTYPE svg PUBLIC "-//W3C//DTD SVG 1.1//EN" "http://www.w3.org/Graphics/SVG/1.1/DTD/svg11.dtd">
<svg version="1.1" id="Layer_1" xmlns="http://www.w3.org/2000/svg" xmlns:xlink="http://www.w3.org/1999/xlink" x="0px" y="0px"
	 width="96.4px" height="76.761px" viewBox="0 0 96.4 76.761" style="enable-background:new 0 0 96.4 76.761;" xml:space="preserve"
	>
<path d="M0,66.09l0.002-15.236l4.952,2.248c14.17,6.434,28.009,9.694,41.134,9.694c5.297,0.001,9.979-0.421,13.998-1.26
	c-1.209-1.148-2.244-2.397-3.098-3.74c-2.097-3.171-3.23-7.135-3.23-11.563c-0.001-5.802,2.118-10.853,6.298-15.015
	c4.201-4.14,9.293-6.233,15.146-6.232c5.842,0,10.883,2.088,14.983,6.209c4.083,4.069,6.212,9.17,6.215,14.933
	c0.001,9.156-5.419,16.724-16.11,22.494c-9.962,5.397-22.575,8.137-37.482,8.138c-12.894-0.003-26.608-3.278-40.764-9.737L0,66.09z
	 M84.381,43.662c-0.425-1.577-1.239-2.958-2.491-4.222c-1.857-1.902-4.063-2.818-6.76-2.819c-2.716,0-4.948,0.921-6.824,2.817
	c-1.936,1.927-2.867,4.155-2.868,6.83c0,0.888,0.106,1.735,0.316,2.517c0,0.001,0,0.001,0,0.001
	c0.418,1.555,1.252,2.931,2.552,4.207c1.949,1.89,4.224,2.817,6.934,2.819c2.686-0.002,4.892-0.896,6.739-2.735
	c1.844-1.837,2.742-4.031,2.742-6.706C84.721,45.414,84.606,44.502,84.381,43.662z M0.723,36.195
	c-0.479-1.782-0.722-3.679-0.722-5.636c-0.003-9.107,5.418-16.652,16.111-22.424C26.115,2.736,38.727-0.001,53.594,0
	c12.94-0.001,26.654,3.262,40.763,9.7l2.044,0.932v15.246l-4.956-2.256c-14.078-6.408-27.905-9.658-41.096-9.658
	c-5.298,0-9.978,0.42-13.994,1.25c1.191,1.136,2.218,2.366,3.075,3.688c2.146,3.313,3.249,7.239,3.247,11.592
	c0.002,5.777-2.129,10.828-6.331,15.012c-4.155,4.137-9.239,6.234-15.11,6.234c-5.784,0-10.829-2.082-14.994-6.188
	C3.502,42.797,1.653,39.657,0.723,36.195z M30.65,27.975c-0.417-1.553-1.253-2.93-2.555-4.209c-1.932-1.924-4.17-2.852-6.86-2.852
	c-2.66-0.001-4.888,0.904-6.81,2.766c-1.813,1.803-2.709,3.996-2.71,6.673c0,2.78,0.896,5.014,2.796,6.931
	c1.906,1.924,4.054,2.82,6.758,2.819c2.752-0.001,4.938-0.902,6.881-2.837c1.894-1.886,2.813-4.112,2.813-6.81
	C30.964,29.582,30.858,28.748,30.65,27.975z"/>
</svg>
