<?xml version="1.0" encoding="iso-8859-1"?>
<!-- Generator: Adobe Illustrator 16.0.0, SVG Export Plug-In . SVG Version: 6.00 Build 0)  -->
<!DOCTYPE svg PUBLIC "-//W3C//DTD SVG 1.1//EN" "http://www.w3.org/Graphics/SVG/1.1/DTD/svg11.dtd">
<svg version="1.1" id="Layer_1" xmlns="http://www.w3.org/2000/svg" xmlns:xlink="http://www.w3.org/1999/xlink" x="0px" y="0px"
	 width="80.074px" height="77.685px" viewBox="0 0 80.074 77.685" style="enable-background:new 0 0 80.074 77.685;"
	 xml:space="preserve">
<path d="M0.028,13.56L0,1.825l7.733,0.018c6.732,0.015,9.922,3.652,11.413,6.7c0.891,1.86,1.708,4.12,2.495,6.903
	c2.014-4.688,4.495-8.803,7.426-12.306l0.793-0.947L41.292,0l1.128,2.559c1.981,4.498,3.613,11.125,4.896,19.851l1.063,6.979
	c0.351,2.496,0.587,4.286,0.709,5.36c0.05,0.455,0.102,0.899,0.155,1.33c4.462-4.415,9.425-5.515,13.284-5.506
	c4.796,0.011,8.955,1.722,12.363,5.083c3.391,3.313,5.172,7.54,5.184,12.343c0.011,5.063-1.701,9.416-5.09,12.938
	c-3.426,3.561-7.666,5.359-12.602,5.349c-4.679-0.012-8.957-1.368-12.771-4.043c-2.382,5.659-4.531,9.311-6.654,11.34
	c-2.903,2.774-7.242,4.116-13.266,4.103l-8.64-0.021l-0.026-11.789l5.892,0.014c5.024,0.013,6.855-1.159,7.5-1.858
	c0.644-0.7,2.457-3.339,5.725-12.855c-1.01-1.927-1.698-3.595-2.093-5.067c-0.46-1.741-0.999-5.155-1.657-10.486l-1.465-10.929
	c-0.361-2.746-0.747-5.159-1.155-7.219c-1.382,2.54-2.655,5.447-3.809,8.703c-2.202,6.136-3.31,11.674-3.298,16.475l0.015,6.595
	l-12.633-0.03l-0.012-5.509c-0.009-3.476-0.63-8.418-1.901-15.109c-0.624-3.216-1.227-5.917-1.788-8.014
	c-0.687-2.561-1.192-3.79-1.497-4.369c-0.966-1.852-2.239-2.642-4.262-2.646L0.028,13.56z M68.157,46.312
	c-0.263-0.979-0.763-1.842-1.528-2.638c-1.139-1.182-2.434-1.734-4.074-1.738c-3.557-0.009-6.601,2.953-9.063,8.813
	c2.901,2.803,5.733,4.225,8.441,4.231c1.893,0.004,3.352-0.602,4.589-1.904c1.259-1.306,1.859-2.941,1.854-5.019
	C68.375,47.438,68.3,46.85,68.157,46.312z"/>
</svg>
