<?xml version="1.0" encoding="iso-8859-1"?>
<!-- Generator: Adobe Illustrator 16.0.0, SVG Export Plug-In . SVG Version: 6.00 Build 0)  -->
<!DOCTYPE svg PUBLIC "-//W3C//DTD SVG 1.1//EN" "http://www.w3.org/Graphics/SVG/1.1/DTD/svg11.dtd">
<svg version="1.1" id="Layer_1" xmlns="http://www.w3.org/2000/svg" xmlns:xlink="http://www.w3.org/1999/xlink" x="0px" y="0px"
	 width="63.175px" height="77.001px" viewBox="0 0 63.175 77.001" style="enable-background:new 0 0 63.175 77.001;"
	 xml:space="preserve">
<path d="M51.716,6.188c4.023,4.023,6.063,9.315,6.065,15.73c0.001,3.117-0.34,5.853-1.012,8.133
	c-0.583,2.099-1.941,5.43-4.261,10.433l-2.367,5.164c-5.469,11.861-6.059,15.385-6.059,16.349c0,1.444,0.478,2.119,0.837,2.501
	l0.149,0.16c0.314,0.314,0.807,0.675,1.838,0.674c0.869,0,2.8-0.421,5.994-3.251l2.578-2.284l7.695,8.412L60.6,70.571
	c-4.651,4.266-9.318,6.43-13.87,6.43c-4.11-0.001-7.627-1.4-10.452-4.159l-0.081-0.081c-2.779-2.779-4.189-6.222-4.188-10.232
	c0-4.691,2.237-11.721,6.838-21.488l3.313-7.062c2.887-6.181,3.494-9.832,3.494-11.806c0-3.428-0.914-6.047-2.797-8.006
	l-0.179-0.183c-1.815-1.815-4.211-2.698-7.322-2.697c-2.965-0.001-5.269,0.824-7.043,2.522c-1.701,1.686-2.515,3.831-2.515,6.708
	c0,2.977,1.018,6.615,3.024,10.812l1.347,2.796c2.533,5.24,3.713,8.982,3.713,11.773c0,4.403-1.749,8.443-5.056,11.684
	c-3.315,3.254-7.314,4.903-11.886,4.903c-4.666,0.001-8.683-1.648-11.937-4.902C1.665,54.241-0.001,50.183,0,45.464
	c0-4.586,1.645-8.573,4.889-11.851c2.916-2.974,6.4-4.634,10.366-4.939c-1.063-3.032-1.585-5.841-1.585-8.489
	c0-5.785,2.114-10.661,6.286-14.492C24.063,1.915,29.235,0,35.33,0c6.615,0,12.065,2.021,16.201,6.004L51.716,6.188z M12.582,49.956
	c1.161,1.161,2.483,1.703,4.157,1.702c1.636,0,2.95-0.561,4.136-1.764c1.192-1.208,1.747-2.583,1.747-4.328
	c0.001-1.78-0.55-3.177-1.736-4.396c-1.166-1.164-2.51-1.721-4.203-1.723c-1.634,0-2.948,0.561-4.133,1.764
	c-1.172,1.203-1.724,2.576-1.724,4.303c0,1.799,0.553,3.204,1.738,4.422"/>
</svg>
