<?xml version="1.0" encoding="iso-8859-1"?>
<!-- Generator: Adobe Illustrator 16.0.0, SVG Export Plug-In . SVG Version: 6.00 Build 0)  -->
<!DOCTYPE svg PUBLIC "-//W3C//DTD SVG 1.1//EN" "http://www.w3.org/Graphics/SVG/1.1/DTD/svg11.dtd">
<svg version="1.1" id="Layer_1" xmlns="http://www.w3.org/2000/svg" xmlns:xlink="http://www.w3.org/1999/xlink" x="0px" y="0px"
	 width="90.778px" height="77px" viewBox="0 0 90.778 77" style="enable-background:new 0 0 90.778 77;" xml:space="preserve">
<path d="M37.816,0.972C40.224,0.327,42.784,0,45.429,0c7.705-0.001,14.443,2.759,20.029,8.203
	c5.618,5.434,8.472,12.058,8.472,19.678c0,3.908-0.949,7.586-2.831,10.996l19.68,0l-0.001,14.792H50.664V41.017l1.598-1.034
	c4.62-2.993,6.865-6.825,6.865-11.714c0-3.672-1.323-6.762-4.044-9.449c-2.746-2.71-5.904-4.028-9.655-4.029
	c-1.303,0-2.548,0.157-3.7,0.465l0,0c-2.226,0.596-4.181,1.758-5.977,3.551c-2.736,2.7-4.06,5.79-4.059,9.46
	c0.001,4.91,2.233,8.741,6.825,11.713l1.599,1.034v12.653L0,53.667l0.002-14.791h19.719c-1.882-3.41-2.831-7.088-2.831-10.997
	c-0.001-7.577,2.85-14.197,8.472-19.676C29.017,4.64,33.207,2.207,37.816,0.972z M0.003,62.249l90.775,0.001V77H0L0.003,62.249z"/>
</svg>
