<?xml version="1.0" encoding="iso-8859-1"?>
<!-- Generator: Adobe Illustrator 16.0.0, SVG Export Plug-In . SVG Version: 6.00 Build 0)  -->
<!DOCTYPE svg PUBLIC "-//W3C//DTD SVG 1.1//EN" "http://www.w3.org/Graphics/SVG/1.1/DTD/svg11.dtd">
<svg version="1.1" id="Layer_1" xmlns="http://www.w3.org/2000/svg" xmlns:xlink="http://www.w3.org/1999/xlink" x="0px" y="0px"
	 width="68.158px" height="68.158px" viewBox="0 0 68.158 68.158" style="enable-background:new 0 0 68.158 68.158;"
	 xml:space="preserve">
<path style="fill-rule:evenodd;clip-rule:evenodd;" d="M41.642,5.303l7.071,7.071l-5.63,5.63
	c-10.714-7.387-25.497-6.322-35.029,3.209c-10.739,10.739-10.739,28.151,0,38.891c10.74,10.739,28.152,10.739,38.891,0
	c9.531-9.531,10.596-24.314,3.209-35.028l5.63-5.63l7.07,7.071L68.158,0L41.642,5.303z M39.886,53.045
	c-6.84,6.84-17.932,6.84-24.772,0c-6.841-6.841-6.841-17.932,0-24.772c6.84-6.841,17.932-6.841,24.772,0
	C46.727,35.113,46.727,46.204,39.886,53.045z"/>
</svg>
