<?xml version="1.0" encoding="iso-8859-1"?>
<!-- Generator: Adobe Illustrator 16.0.0, SVG Export Plug-In . SVG Version: 6.00 Build 0)  -->
<!DOCTYPE svg PUBLIC "-//W3C//DTD SVG 1.1//EN" "http://www.w3.org/Graphics/SVG/1.1/DTD/svg11.dtd">
<svg version="1.1" id="Layer_1" xmlns="http://www.w3.org/2000/svg" xmlns:xlink="http://www.w3.org/1999/xlink" x="0px" y="0px"
	 width="55px" height="90px" viewBox="0 0 55 90" style="enable-background:new 0 0 55 90;" xml:space="preserve">
<path style="fill-rule:evenodd;clip-rule:evenodd;" d="M55,37.5c0-9.709-5.037-18.237-12.636-23.131C47.367,8.252,47.5,0,47.5,0
	H37.474c0,5.522-4.465,10-9.974,10s-9.975-4.478-9.975-10H7.5c0,0,0.063,8.281,5.084,14.402C5.014,19.301,0,27.813,0,37.5
	c0,13.479,9.701,24.686,22.5,27.038V67.5h-10v10h10V90h10V77.5h10v-10h-10v-2.962C45.299,62.186,55,50.979,55,37.5z M27.829,55
	h-0.657c-9.521-0.177-17.188-7.938-17.188-17.5c0-8.254,5.717-15.157,13.402-17.011c1.271,0.215,2.631,0.344,4.114,0.344
	c1.478,0,2.833-0.13,4.101-0.347c7.692,1.849,13.416,8.755,13.416,17.014C45.017,47.063,37.35,54.823,27.829,55z"/>
</svg>
