<?xml version="1.0" encoding="iso-8859-1"?>
<!-- Generator: Adobe Illustrator 16.0.0, SVG Export Plug-In . SVG Version: 6.00 Build 0)  -->
<!DOCTYPE svg PUBLIC "-//W3C//DTD SVG 1.1//EN" "http://www.w3.org/Graphics/SVG/1.1/DTD/svg11.dtd">
<svg version="1.1" id="Layer_1" xmlns="http://www.w3.org/2000/svg" xmlns:xlink="http://www.w3.org/1999/xlink" x="0px" y="0px"
	 width="55px" height="80px" viewBox="0 0 55 80" style="enable-background:new 0 0 55 80;" xml:space="preserve">
<path d="M26.735,12.391C37.463,16.968,45,27.619,45,40c0,12.38-7.537,23.032-18.265,27.609C32.024,59.614,35,50.084,35,40
	S32.024,20.386,26.735,12.391 M15,0C9.694,0,4.633,1.043,0,2.919C14.656,8.854,25,23.215,25,40S14.656,71.146,0,77.081
	C4.633,78.957,9.694,80,15,80c22.092,0,40-17.908,40-40S37.092,0,15,0L15,0z"/>
</svg>
