<?xml version="1.0" encoding="iso-8859-1"?>
<!-- Generator: Adobe Illustrator 16.0.0, SVG Export Plug-In . SVG Version: 6.00 Build 0)  -->
<!DOCTYPE svg PUBLIC "-//W3C//DTD SVG 1.1//EN" "http://www.w3.org/Graphics/SVG/1.1/DTD/svg11.dtd">
<svg version="1.1" id="Layer_1" xmlns="http://www.w3.org/2000/svg" xmlns:xlink="http://www.w3.org/1999/xlink" x="0px" y="0px"
	 width="72.698px" height="77px" viewBox="0 0 72.698 77" style="enable-background:new 0 0 72.698 77;" xml:space="preserve">
<path d="M0,77l5.604-5.909c8.285-8.734,12.75-17.93,13.581-28.011L5.143,43.082V31.096l13.791,0
	c-1.374-8.572-5.859-17.042-13.369-25.23L0.186,0h16.353l1.037,1.106c8.176,8.724,13.203,18.8,14.971,29.99l7.615,0
	c1.792-11.189,6.815-21.263,14.958-29.985L56.157,0h16.356l-5.38,5.866c-7.509,8.186-11.994,16.657-13.37,25.23h13.791l0.001,11.984
	H53.512c0.83,10.081,5.296,19.275,13.582,28.011L72.698,77H55.734l-1.046-1.182c-4.48-5.067-8.139-10.948-10.872-17.479
	c-2.184-5.291-3.5-10.405-3.932-15.26h-7.07c-0.432,4.854-1.748,9.966-3.928,15.244c-2.729,6.52-6.372,12.397-10.836,17.484
	L17.005,77H0z"/>
</svg>
