<?xml version="1.0" encoding="iso-8859-1"?>
<!-- Generator: Adobe Illustrator 16.0.0, SVG Export Plug-In . SVG Version: 6.00 Build 0)  -->
<!DOCTYPE svg PUBLIC "-//W3C//DTD SVG 1.1//EN" "http://www.w3.org/Graphics/SVG/1.1/DTD/svg11.dtd">
<svg version="1.1" id="Layer_1" xmlns="http://www.w3.org/2000/svg" xmlns:xlink="http://www.w3.org/1999/xlink" x="0px" y="0px"
	 width="55.137px" height="89.52px" viewBox="0 0 55.137 89.52" style="enable-background:new 0 0 55.137 89.52;"
	 xml:space="preserve">
<path style="fill-rule:evenodd;clip-rule:evenodd;" d="M52.395,54.334l-0.01,0.006C48.308,45.929,39.867,40.029,30,39.563V39.5H20
	V22h10V12H20V0H10v12H0v10h10v60h10V49.5h10v0.126c6.1,0.473,11.252,4.279,13.612,9.607l-0.031,0.018
	c0.39,0.846,0.688,1.712,0.923,2.587c0.058,0.229,0.123,0.457,0.17,0.69c0.015,0.065,0.025,0.132,0.039,0.197
	C44.898,63.705,45,64.715,45,65.75c0,0.429-0.088,0.831-0.12,1.25h0.157c-0.31,5.344-3.233,10.418-8.272,13.229
	c-0.374,0.21-0.771,0.329-1.153,0.506l4.9,8.785c0.375-0.187,0.756-0.352,1.125-0.558C53.966,82.084,58.598,66.805,52.395,54.334z"
	/>
</svg>
