<?xml version="1.0" encoding="iso-8859-1"?>
<!-- Generator: Adobe Illustrator 16.0.0, SVG Export Plug-In . SVG Version: 6.00 Build 0)  -->
<!DOCTYPE svg PUBLIC "-//W3C//DTD SVG 1.1//EN" "http://www.w3.org/Graphics/SVG/1.1/DTD/svg11.dtd">
<svg version="1.1" id="Layer_1" xmlns="http://www.w3.org/2000/svg" xmlns:xlink="http://www.w3.org/1999/xlink" x="0px" y="0px"
	 width="76.133px" height="81.544px" viewBox="0 0 76.133 81.544" style="enable-background:new 0 0 76.133 81.544;"
	 xml:space="preserve">
<path d="M0,1.409l14.863,0l1.036,1.584c0.724,1.107,1.375,2.266,1.953,3.475c0.912-1.389,1.89-2.679,2.929-3.865l0.779-0.891
	l8.366-1.687l1.336,1.559c1.173,1.369,2.173,2.971,2.997,4.798c0.834-1.244,1.752-2.477,2.753-3.695l0.797-0.97L46.519,0
	l1.317,1.784c3.332,4.512,5.021,9.896,5.021,16.003l0.001,33.538c-0.002,4.176,0.19,5.886,0.285,6.474
	c0.145,0.636,0.396,1.124,0.81,1.579c0.74,0.779,2.488,1.244,4.891,1.271v-9.776l17.29,15.635L58.844,81.544v-9.413l-1.427,0.001
	c-5.749-0.001-10.084-1.658-12.886-4.926c-2.729-3.182-4.057-7.815-4.056-14.164l0.001-32.438c0-1.418-0.056-2.652-0.151-3.725
	c-1.559,2.912-2.758,6.171-3.585,9.752v35.626H24.356V22.509c0-2.25-0.096-4.108-0.253-5.644c-1.436,2.59-2.608,5.479-3.51,8.645
	l0.001,36.747H8.213L8.212,20.336c0-5.601-1.271-10.065-3.78-13.27L0,1.409z"/>
</svg>
