<?xml version="1.0" encoding="iso-8859-1"?>
<!-- Generator: Adobe Illustrator 16.0.0, SVG Export Plug-In . SVG Version: 6.00 Build 0)  -->
<!DOCTYPE svg PUBLIC "-//W3C//DTD SVG 1.1//EN" "http://www.w3.org/Graphics/SVG/1.1/DTD/svg11.dtd">
<svg version="1.1" id="Layer_1" xmlns="http://www.w3.org/2000/svg" xmlns:xlink="http://www.w3.org/1999/xlink" x="0px" y="0px"
	 width="80px" height="80px" viewBox="0 0 80 80" style="enable-background:new 0 0 80 80;" xml:space="preserve">
<path style="fill-rule:evenodd;clip-rule:evenodd;" d="M40,80C17.909,80,0,62.092,0,40S17.909,0,40,0c22.092,0,40,17.908,40,40
	S62.092,80,40,80z M40,10c-16.568,0-30,13.432-30,30s13.432,30,30,30s30-13.432,30-30S56.568,10,40,10z M40,50
	c-5.523,0-10-4.478-10-10s4.477-10,10-10c5.523,0,10,4.478,10,10S45.523,50,40,50z"/>
</svg>
