<?xml version="1.0" encoding="iso-8859-1"?>
<!-- Generator: Adobe Illustrator 16.0.0, SVG Export Plug-In . SVG Version: 6.00 Build 0)  -->
<!DOCTYPE svg PUBLIC "-//W3C//DTD SVG 1.1//EN" "http://www.w3.org/Graphics/SVG/1.1/DTD/svg11.dtd">
<svg version="1.1" id="Layer_1" xmlns="http://www.w3.org/2000/svg" xmlns:xlink="http://www.w3.org/1999/xlink" x="0px" y="0px"
	 width="73.759px" height="76.585px" viewBox="0 0 73.759 76.585" style="enable-background:new 0 0 73.759 76.585;"
	 xml:space="preserve">
<path d="M56.121,68.518l-0.091,0.091c-5.308,5.262-11.644,7.942-18.843,7.977c-7.197,0.034-13.555-2.584-18.9-7.784
	c-5.357-5.219-8.088-11.483-8.118-18.622c-0.022-4.938,1.292-9.544,3.904-13.693c1.583-2.519,3.571-4.777,5.94-6.733
	c-0.584-0.438-1.135-0.901-1.649-1.391c-1.791-1.731-3.625-4.294-5.63-7.856l-2.185-3.869c-1.374-2.427-3.54-5.321-6.042-5.309
	L0.045,11.35L0,0.363l6.168-0.036c6.095-0.028,11.498,3.896,16.066,11.663l2.996,5.188c1.706,2.859,3.423,4.847,5.082,5.867
	c1.609,1.01,3.84,1.506,6.658,1.493c2.817-0.013,5.042-0.53,6.617-1.539c1.722-1.082,3.382-3.074,5.048-5.961l2.988-5.19
	c4.477-7.813,9.875-11.79,15.915-11.815L73.705,0l0.055,11.002l-4.448,0.011c-2.021,0.009-4.079,1.875-6.016,5.372l-2.156,3.895
	c-1.93,3.496-3.702,6.035-5.417,7.76l-0.123,0.123c-0.519,0.501-1.074,0.977-1.663,1.425c2.383,1.933,4.392,4.166,6.003,6.677
	c2.627,4.092,3.971,8.687,3.99,13.655C63.96,57.019,61.333,63.277,56.121,68.518z M26.695,40.249
	c-2.775,2.791-4.116,6.064-4.101,10.008c0.017,3.885,1.408,7.106,4.254,9.844c2.861,2.797,6.219,4.137,10.286,4.117
	c4.026-0.02,7.369-1.396,10.218-4.207l0.165-0.162c2.717-2.732,4.03-5.916,4.014-9.734c-0.016-3.971-1.404-7.25-4.246-10.027
	c-2.822-2.78-6.178-4.117-10.266-4.096c-4.065,0.017-7.423,1.393-10.271,4.205L26.695,40.249z"/>
</svg>
