<?xml version="1.0" encoding="iso-8859-1"?>
<!-- Generator: Adobe Illustrator 16.0.0, SVG Export Plug-In . SVG Version: 6.00 Build 0)  -->
<!DOCTYPE svg PUBLIC "-//W3C//DTD SVG 1.1//EN" "http://www.w3.org/Graphics/SVG/1.1/DTD/svg11.dtd">
<svg version="1.1" id="Layer_1" xmlns="http://www.w3.org/2000/svg" xmlns:xlink="http://www.w3.org/1999/xlink" x="0px" y="0px"
	 width="55px" height="80px" viewBox="0 0 55 80" style="enable-background:new 0 0 55 80;" xml:space="preserve">
<path style="fill-rule:evenodd;clip-rule:evenodd;" d="M55,27.5C55,12.313,42.688,0,27.5,0S0,12.313,0,27.5
	c0,13.479,9.701,24.686,22.5,27.038V60.5h-10v10h10V80h10v-9.5h10v-10h-10v-5.962C45.299,52.186,55,40.979,55,27.5z M9.983,27.5
	c0-9.674,7.843-17.517,17.517-17.517S45.017,17.826,45.017,27.5c0,9.563-7.667,17.323-17.188,17.5h-0.657
	C17.651,44.823,9.983,37.063,9.983,27.5z"/>
</svg>
