<?xml version="1.0" encoding="iso-8859-1"?>
<!-- Generator: Adobe Illustrator 16.0.0, SVG Export Plug-In . SVG Version: 6.00 Build 0)  -->
<!DOCTYPE svg PUBLIC "-//W3C//DTD SVG 1.1//EN" "http://www.w3.org/Graphics/SVG/1.1/DTD/svg11.dtd">
<svg version="1.1" id="Layer_1" xmlns="http://www.w3.org/2000/svg" xmlns:xlink="http://www.w3.org/1999/xlink" x="0px" y="0px"
	 width="67.783px" height="77.354px" viewBox="0 0 67.783 77.354" style="enable-background:new 0 0 67.783 77.354;"
	 xml:space="preserve">
<path d="M46.388,0l1.305,1.803c2.848,3.939,4.514,8.299,4.966,12.99l7.227-2.652l1.521,2.346c4.232,6.532,6.377,13.543,6.378,20.84
	c0,5.754-1.296,11.257-3.85,16.354c-2.21,4.412-5.466,8.629-9.693,12.554c0.704,2.158,2.198,4.64,4.462,7.399l4.686,5.719
	l-15.496,0.002l-1.051-1.326c-1.15-1.451-2.215-3.194-3.18-5.207c-2.994,1.24-6.404,2.17-10.184,2.771l-4.051,0.646l0-11.428
	l-5.489,0.002l0-39.805c0-2.407-0.109-4.376-0.281-5.983c-1.447,2.595-2.655,5.471-3.643,8.675l0,37.11l-12.46,0.002V19.78
	c0-4.766-1.309-9.129-3.89-12.97L0,1.359l14.11-0.002l1.048,1.439c0.808,1.107,1.529,2.324,2.163,3.646
	c0.952-1.46,1.959-2.775,3.017-3.938l0.79-0.869l8.606-1.615l1.311,1.687c1.116,1.437,2.071,3.054,2.865,4.843
	c0.898-1.336,1.901-2.656,3.005-3.958l0.8-0.941L46.388,0z M40.601,59.413c-0.186-1.716-0.279-3.439-0.279-5.148V21.163
	c0.001-1.541-0.064-2.952-0.195-4.231c-1.5,2.825-2.737,6.151-3.7,9.953l0.001,34.104C37.944,60.526,39.338,60.001,40.601,59.413z
	 M52.784,47.076c0.16-0.333,0.313-0.669,0.459-1.008c1.375-3.245,2.077-6.765,2.077-10.443c0-1.462-0.123-2.916-0.369-4.354
	c-0.782,1.679-1.506,3.533-2.167,5.555V47.076z"/>
</svg>
